<svg xmlns="http://www.w3.org/2000/svg" viewBox="0 0 200 200" width="200" height="200">
  <rect width="200" height="200" rx="12" fill="#1a1a2e"/>
  <!-- Face outline -->
  <ellipse cx="100" cy="92" rx="52" ry="62" fill="none" stroke="#2698ba" stroke-width="2" opacity="0.7"/>
  <!-- Grid overlay (eigenspace) -->
  <line x1="48" y1="52" x2="152" y2="52" stroke="#b509ac" stroke-width="0.7" opacity="0.4"/>
  <line x1="48" y1="72" x2="152" y2="72" stroke="#b509ac" stroke-width="0.7" opacity="0.4"/>
  <line x1="48" y1="92" x2="152" y2="92" stroke="#b509ac" stroke-width="0.7" opacity="0.4"/>
  <line x1="48" y1="112" x2="152" y2="112" stroke="#b509ac" stroke-width="0.7" opacity="0.4"/>
  <line x1="48" y1="132" x2="152" y2="132" stroke="#b509ac" stroke-width="0.7" opacity="0.4"/>
  <line x1="68" y1="30" x2="68" y2="154" stroke="#b509ac" stroke-width="0.7" opacity="0.4"/>
  <line x1="88" y1="30" x2="88" y2="154" stroke="#b509ac" stroke-width="0.7" opacity="0.4"/>
  <line x1="108" y1="30" x2="108" y2="154" stroke="#b509ac" stroke-width="0.7" opacity="0.4"/>
  <line x1="128" y1="30" x2="128" y2="154" stroke="#b509ac" stroke-width="0.7" opacity="0.4"/>
  <!-- Eyes -->
  <ellipse cx="82" cy="82" rx="9" ry="7" fill="#2698ba" opacity="0.8"/>
  <ellipse cx="118" cy="82" rx="9" ry="7" fill="#2698ba" opacity="0.8"/>
  <circle cx="82" cy="82" r="4" fill="#0d1b2a"/>
  <circle cx="118" cy="82" r="4" fill="#0d1b2a"/>
  <!-- Nose -->
  <path d="M100,90 L95,112 Q100,116 105,112 Z" fill="none" stroke="#2698ba" stroke-width="1.5" opacity="0.6"/>
  <!-- Mouth -->
  <path d="M82,122 Q100,132 118,122" fill="none" stroke="#2698ba" stroke-width="1.8" opacity="0.7"/>
  <!-- PCA decomposition hint -->
  <text x="100" y="175" font-family="sans-serif" font-size="8" fill="#2698ba" text-anchor="middle">Eigenface Analysis</text>
  <text x="100" y="188" font-family="sans-serif" font-size="8" fill="#666" text-anchor="middle">Non-Caucasian Faces</text>
</svg>